<?xml version="1.0" encoding="utf-8"?>
<!-- Svg Vector Icons : http://www.onlinewebfonts.com/icon -->
<!DOCTYPE svg PUBLIC "-//W3C//DTD SVG 1.1//EN" "http://www.w3.org/Graphics/SVG/1.1/DTD/svg11.dtd">
<svg version="1.1" xmlns="http://www.w3.org/2000/svg" xmlns:xlink="http://www.w3.org/1999/xlink" x="0px" y="0px" viewBox="0 0 1000 1000" enable-background="new 0 0 1000 1000" xml:space="preserve">
<metadata> Svg Vector Icons : http://www.onlinewebfonts.com/icon </metadata>
<g><path d="M804.7,990H195.3c-77.9,0-86.4-28.6-87.1-85.2V95.2c0-47.1,17.7-85.9,87.1-85.2h360.6h60.9l268.6,283.2l6.4,5v10v9.5v54.4v532.6C891.7,968.4,867.8,990,804.7,990L804.7,990z M630.6,116.8v156.3c0,23.5,5,25.1,29,25.1h145.1L630.6,116.8L630.6,116.8z M833.7,355.9H630.6c-48.1,0-58-39.4-58-86.5V67.7H195.3c-24,0-29,5.3-29,28.8v807.1c0,23.5,5,28.8,29,28.8h609.4c24,0,29-5.3,29-28.8V355.9L833.7,355.9z M253.3,701.8h493.3v57.6H253.3V701.8L253.3,701.8z M253.3,586.5h493.3v57.6H253.3V586.5L253.3,586.5z M253.3,442.4h232.1V500H253.3V442.4L253.3,442.4z M253.3,327.1h232.1v57.6H253.3V327.1L253.3,327.1z"/></g>
</svg>